<svg width="726" height="194" viewBox="0 0 726 194" fill="none" xmlns="http://www.w3.org/2000/svg">
<path d="M156.943 104.261C156.67 101.511 155.5 99.375 153.432 97.8523C151.364 96.3295 148.557 95.5682 145.011 95.5682C142.602 95.5682 140.568 95.9091 138.909 96.5909C137.25 97.25 135.977 98.1705 135.091 99.3523C134.227 100.534 133.795 101.875 133.795 103.375C133.75 104.625 134.011 105.716 134.58 106.648C135.17 107.58 135.977 108.386 137 109.068C138.023 109.727 139.205 110.307 140.545 110.807C141.886 111.284 143.318 111.693 144.841 112.034L151.114 113.534C154.159 114.216 156.955 115.125 159.5 116.261C162.045 117.398 164.25 118.795 166.114 120.455C167.977 122.114 169.42 124.068 170.443 126.318C171.489 128.568 172.023 131.148 172.045 134.057C172.023 138.33 170.932 142.034 168.773 145.17C166.636 148.284 163.545 150.705 159.5 152.432C155.477 154.136 150.625 154.989 144.943 154.989C139.307 154.989 134.398 154.125 130.216 152.398C126.057 150.67 122.807 148.114 120.466 144.727C118.148 141.318 116.932 137.102 116.818 132.08H131.102C131.261 134.42 131.932 136.375 133.114 137.943C134.318 139.489 135.92 140.659 137.92 141.455C139.943 142.227 142.227 142.614 144.773 142.614C147.273 142.614 149.443 142.25 151.284 141.523C153.148 140.795 154.591 139.784 155.614 138.489C156.636 137.193 157.148 135.705 157.148 134.023C157.148 132.455 156.682 131.136 155.75 130.068C154.841 129 153.5 128.091 151.727 127.341C149.977 126.591 147.83 125.909 145.284 125.295L137.682 123.386C131.795 121.955 127.148 119.716 123.739 116.67C120.33 113.625 118.636 109.523 118.659 104.364C118.636 100.136 119.761 96.4432 122.034 93.2841C124.33 90.125 127.477 87.6591 131.477 85.8864C135.477 84.1136 140.023 83.2273 145.114 83.2273C150.295 83.2273 154.818 84.1136 158.682 85.8864C162.568 87.6591 165.591 90.125 167.75 93.2841C169.909 96.4432 171.023 100.102 171.091 104.261H156.943ZM181.974 154V84.1818H196.736V114.966H197.656L222.781 84.1818H240.474L214.565 115.443L240.781 154H223.122L203.997 125.295L196.736 134.159V154H181.974ZM244.071 84.1818H260.605L276.526 114.25H277.207L293.128 84.1818H309.662L284.196 129.318V154H269.537V129.318L244.071 84.1818Z" fill="#12A5D8"/>
<path d="M377.818 104.261C377.545 101.511 376.375 99.375 374.307 97.8523C372.239 96.3295 369.432 95.5682 365.886 95.5682C363.477 95.5682 361.443 95.9091 359.784 96.5909C358.125 97.25 356.852 98.1705 355.966 99.3523C355.102 100.534 354.67 101.875 354.67 103.375C354.625 104.625 354.886 105.716 355.455 106.648C356.045 107.58 356.852 108.386 357.875 109.068C358.898 109.727 360.08 110.307 361.42 110.807C362.761 111.284 364.193 111.693 365.716 112.034L371.989 113.534C375.034 114.216 377.83 115.125 380.375 116.261C382.92 117.398 385.125 118.795 386.989 120.455C388.852 122.114 390.295 124.068 391.318 126.318C392.364 128.568 392.898 131.148 392.92 134.057C392.898 138.33 391.807 142.034 389.648 145.17C387.511 148.284 384.42 150.705 380.375 152.432C376.352 154.136 371.5 154.989 365.818 154.989C360.182 154.989 355.273 154.125 351.091 152.398C346.932 150.67 343.682 148.114 341.341 144.727C339.023 141.318 337.807 137.102 337.693 132.08H351.977C352.136 134.42 352.807 136.375 353.989 137.943C355.193 139.489 356.795 140.659 358.795 141.455C360.818 142.227 363.102 142.614 365.648 142.614C368.148 142.614 370.318 142.25 372.159 141.523C374.023 140.795 375.466 139.784 376.489 138.489C377.511 137.193 378.023 135.705 378.023 134.023C378.023 132.455 377.557 131.136 376.625 130.068C375.716 129 374.375 128.091 372.602 127.341C370.852 126.591 368.705 125.909 366.159 125.295L358.557 123.386C352.67 121.955 348.023 119.716 344.614 116.67C341.205 113.625 339.511 109.523 339.534 104.364C339.511 100.136 340.636 96.4432 342.909 93.2841C345.205 90.125 348.352 87.6591 352.352 85.8864C356.352 84.1136 360.898 83.2273 365.989 83.2273C371.17 83.2273 375.693 84.1136 379.557 85.8864C383.443 87.6591 386.466 90.125 388.625 93.2841C390.784 96.4432 391.898 100.102 391.966 104.261H377.818ZM400.19 96.3523V84.1818H457.531V96.3523H436.156V154H421.565V96.3523H400.19ZM470.477 154H454.659L478.761 84.1818H497.784L521.852 154H506.034L488.545 100.136H488L470.477 154ZM469.489 126.557H506.852V138.08H469.489V126.557ZM519.065 96.3523V84.1818H576.406V96.3523H555.031V154H540.44V96.3523H519.065ZM585.849 154V84.1818H632.895V96.3523H600.611V112.989H630.474V125.159H600.611V141.83H633.031V154H585.849ZM682.506 104.261C682.233 101.511 681.063 99.375 678.994 97.8523C676.926 96.3295 674.119 95.5682 670.574 95.5682C668.165 95.5682 666.131 95.9091 664.472 96.5909C662.813 97.25 661.54 98.1705 660.653 99.3523C659.79 100.534 659.358 101.875 659.358 103.375C659.313 104.625 659.574 105.716 660.142 106.648C660.733 107.58 661.54 108.386 662.562 109.068C663.585 109.727 664.767 110.307 666.108 110.807C667.449 111.284 668.881 111.693 670.403 112.034L676.676 113.534C679.722 114.216 682.517 115.125 685.062 116.261C687.608 117.398 689.813 118.795 691.676 120.455C693.54 122.114 694.983 124.068 696.006 126.318C697.051 128.568 697.585 131.148 697.608 134.057C697.585 138.33 696.494 142.034 694.335 145.17C692.199 148.284 689.108 150.705 685.062 152.432C681.04 154.136 676.188 154.989 670.506 154.989C664.869 154.989 659.96 154.125 655.778 152.398C651.619 150.67 648.369 148.114 646.028 144.727C643.71 141.318 642.494 137.102 642.381 132.08H656.665C656.824 134.42 657.494 136.375 658.676 137.943C659.881 139.489 661.483 140.659 663.483 141.455C665.506 142.227 667.79 142.614 670.335 142.614C672.835 142.614 675.006 142.25 676.847 141.523C678.71 140.795 680.153 139.784 681.176 138.489C682.199 137.193 682.71 135.705 682.71 134.023C682.71 132.455 682.244 131.136 681.312 130.068C680.403 129 679.063 128.091 677.29 127.341C675.54 126.591 673.392 125.909 670.847 125.295L663.244 123.386C657.358 121.955 652.71 119.716 649.301 116.67C645.892 113.625 644.199 109.523 644.222 104.364C644.199 100.136 645.324 96.4432 647.597 93.2841C649.892 90.125 653.04 87.6591 657.04 85.8864C661.04 84.1136 665.585 83.2273 670.676 83.2273C675.858 83.2273 680.381 84.1136 684.244 85.8864C688.131 87.6591 691.153 90.125 693.312 93.2841C695.472 96.4432 696.585 100.102 696.653 104.261H682.506Z" fill="#060606"/>
<path d="M72.2796 97.028C59.3478 111.287 48.8893 126.854 40.1962 143.157C34.0487 139.633 28.2046 136.283 22 132.726C57.8528 81.7651 106.128 46.8395 165.913 24.9479C162.605 22.4648 160.606 20.9645 157.989 19C166.155 19 173.721 19 182.314 19C178.033 26.2086 174.113 32.8079 169.454 40.6529C169.454 35.7578 169.454 32.3377 169.454 27.7654C130.971 43.0638 99.366 66.5264 72.2796 97.028Z" fill="#12A5D8"/>
<path d="M150.6 42.1161C148.977 43.9674 147.587 46.1114 145.694 47.6263C117.357 70.302 94.216 97.1973 78.7224 130.241C70.7822 147.175 65.0962 164.864 62.2002 183.394C62.1372 183.797 61.8873 184.171 61.2727 185.634C60.2404 182.6 59.6618 180.436 58.7827 178.401C55.5617 170.945 52.142 163.573 49.0381 156.07C48.3916 154.507 48.1099 152.21 48.7795 150.772C70.3303 104.493 104.285 69.6161 147.77 43.5697C148.446 43.165 149.32 43.0914 150.314 42.5092C150.527 42.1552 150.6 42.1161 150.6 42.1161Z" fill="#252321"/>
</svg>
