<svg version="1.1" id="Layer_1" xmlns="http://www.w3.org/2000/svg" xmlns:xlink="http://www.w3.org/1999/xlink" x="0px" y="0px"
	 width="100%" viewBox="0 0 1024 1024" enable-background="new 0 0 1024 1024" xml:space="preserve">
<path fill="#FFFFFF" opacity="1.000000" stroke="none" 
	d="
M927.000000,1025.000000 
	C618.000000,1025.000000 309.500000,1025.000000 1.000000,1025.000000 
	C1.000000,683.666687 1.000000,342.333344 1.000000,1.000000 
	C342.333344,1.000000 683.666687,1.000000 1025.000000,1.000000 
	C1025.000000,342.333344 1025.000000,683.666687 1025.000000,1025.000000 
	C992.500000,1025.000000 960.000000,1025.000000 927.000000,1025.000000 
M304.732941,453.768890 
	C303.951416,453.997009 303.077362,454.070618 302.401611,454.475342 
	C258.916901,480.521729 224.961823,515.398438 203.410995,561.677246 
	C202.741425,563.115112 203.023102,565.413025 203.669540,566.975708 
	C206.773438,574.478760 210.193192,581.850464 213.414169,589.306213 
	C214.293320,591.341187 214.871902,593.505981 215.904236,596.539124 
	C216.518738,595.076599 216.768707,594.702942 216.831665,594.300049 
	C219.727722,575.769531 225.413712,558.080139 233.353912,541.146118 
	C248.847473,508.102936 271.988098,481.207642 300.325256,458.531921 
	C302.218353,457.016998 303.608063,454.873047 305.020203,453.070587 
	C305.020203,453.070587 305.173767,452.896973 305.173767,452.896973 
	C305.173767,452.896973 305.139404,453.142303 304.732941,453.768890 
M470.837433,500.497803 
	C473.298431,496.214172 475.759460,491.930542 478.287231,487.530762 
	C468.043793,484.821136 464.638184,486.061798 459.835449,493.971710 
	C456.811310,498.952271 453.850891,503.971832 450.796967,508.933929 
	C449.909729,510.375610 448.798584,511.679504 447.288116,513.726990 
	C442.261993,505.345642 437.647003,497.858856 433.269592,490.235626 
	C431.758118,487.603455 429.935425,486.500519 426.883331,486.576813 
	C419.225067,486.768280 411.550232,486.474426 403.903290,486.830719 
	C401.712738,486.932739 399.092926,488.081451 397.531006,489.622803 
	C391.133911,495.935608 385.095856,502.610901 378.860748,509.090363 
	C377.599670,510.400879 376.056671,511.440094 373.392212,513.635498 
	C373.392212,503.662811 373.392212,495.299194 373.392212,486.891541 
	C368.014923,486.891541 363.418854,486.891541 358.600464,486.891541 
	C358.600464,507.898895 358.600464,528.604736 358.600464,549.536865 
	C363.556702,549.536865 368.131683,549.536865 373.226685,549.536865 
	C373.389557,540.308472 371.188721,530.263306 382.372009,525.032959 
	C387.636993,531.958069 392.906738,539.005066 398.330627,545.931335 
	C399.491821,547.414062 401.129578,549.397278 402.689667,549.534241 
	C407.865417,549.988647 413.105896,549.705872 419.070465,549.705872 
	C417.852386,547.915649 417.255951,546.946838 416.570404,546.045898 
	C409.714661,537.035828 403.023193,527.891968 395.897156,519.100464 
	C392.683289,515.135376 392.306427,512.351562 396.340790,508.710266 
	C400.649628,504.821167 404.346191,500.250366 408.277435,495.947418 
	C410.572052,493.435791 412.802704,490.865753 415.545959,487.777283 
	C423.177460,500.430847 430.203491,511.718048 436.789459,523.256470 
	C438.428284,526.127686 439.140625,529.772034 439.402161,533.129333 
	C439.823151,538.533752 439.515228,543.994873 439.515228,549.311768 
	C445.036774,549.311768 449.769257,549.311768 455.759155,549.311768 
	C450.418060,531.537476 459.780670,518.421631 468.195892,505.004669 
	C468.991638,503.735992 469.694458,502.409058 470.837433,500.497803 
M227.151398,507.671936 
	C253.997467,477.431976 285.602814,453.969391 324.085205,438.671021 
	C324.085205,443.243347 324.085205,446.663422 324.085205,451.558533 
	C328.744659,443.713531 332.664215,437.114258 336.945679,429.905609 
	C328.352966,429.905609 320.786133,429.905609 312.620178,429.905609 
	C315.237549,431.870117 317.236481,433.370453 320.544708,435.853516 
	C260.759766,457.745087 212.484268,492.670715 176.631485,543.632019 
	C182.836075,547.188843 188.680145,550.538940 194.827652,554.063049 
	C203.520767,537.759644 213.979309,522.193054 227.151398,507.671936 
M755.611816,507.449646 
	C755.611816,504.510651 755.611816,501.571625 755.611816,498.343262 
	C767.063599,498.343262 777.826477,498.343262 788.744629,498.343262 
	C788.744629,494.418396 788.744629,490.793499 788.744629,487.031616 
	C772.750427,487.031616 756.893677,487.031616 740.972534,487.031616 
	C740.972534,508.022858 740.972534,528.628540 740.972534,549.155762 
	C757.573914,549.155762 773.925842,549.155762 790.230713,549.155762 
	C790.230713,545.217224 790.230713,541.764526 790.230713,537.830444 
	C778.631653,537.830444 767.245911,537.830444 755.966797,537.830444 
	C755.966797,532.795044 755.966797,528.254211 755.966797,523.549927 
	C765.867249,523.549927 775.322388,523.549927 784.891357,523.549927 
	C784.891357,519.610596 784.891357,515.866394 784.891357,512.041443 
	C776.080383,512.041443 767.598572,511.912750 759.124451,512.111816 
	C756.191162,512.180725 755.194519,511.196167 755.611816,507.449646 
M301.922150,492.411133 
	C291.900238,504.371918 295.040863,516.357178 309.684418,521.805969 
	C312.168884,522.730408 314.775482,523.334412 317.339996,524.033875 
	C320.865997,524.995483 324.658966,525.405273 327.850464,527.016357 
	C329.980896,528.091797 332.727844,531.008118 332.530060,532.807129 
	C332.314972,534.763428 329.151031,537.656250 327.026001,537.889160 
	C322.015137,538.438599 316.752991,538.191772 311.791962,537.234009 
	C307.706268,536.445129 303.907196,534.171875 299.796417,532.480530 
	C298.723358,535.275879 297.974487,538.041504 296.643250,540.490479 
	C294.942505,543.619263 296.238831,545.249817 298.991028,546.174194 
	C303.700806,547.755920 308.398621,549.691101 313.260834,550.431824 
	C322.080231,551.775208 330.913971,551.437866 338.965759,546.817200 
	C345.520172,543.055908 348.374878,537.180786 348.035095,529.722656 
	C347.713196,522.656616 343.467651,518.498718 337.310944,516.098999 
	C333.921173,514.777710 330.308594,514.032349 326.805664,512.996216 
	C322.990356,511.867737 319.023468,511.052856 315.450317,509.395081 
	C313.855804,508.655212 312.030029,506.096222 312.170929,504.530304 
	C312.340485,502.645264 314.219727,499.754120 315.836212,499.384125 
	C320.099091,498.408478 324.670532,498.017914 329.023590,498.422516 
	C333.057098,498.797424 336.966980,500.502533 341.403290,501.755188 
	C342.429932,498.711090 343.645691,495.800720 344.301727,492.769226 
	C344.519470,491.763092 343.619476,489.944031 342.686493,489.347534 
	C332.581299,482.887360 312.220947,484.263672 301.922150,492.411133 
M664.538330,541.012695 
	C668.669678,550.629639 670.534485,551.428589 683.467590,548.964417 
	C683.075073,547.867798 682.765991,546.775269 682.305054,545.751099 
	C674.884644,529.263184 666.963440,512.977295 660.229065,496.214447 
	C657.227722,488.743805 653.540466,485.510529 645.426697,486.599243 
	C641.989624,487.060425 640.235474,487.857666 638.910400,491.083984 
	C635.318970,499.828400 631.373413,508.428925 627.494934,517.053589 
	C622.694519,527.728333 617.820374,538.370056 612.701233,549.635132 
	C614.779114,549.635132 616.218140,549.635010 617.657104,549.635132 
	C628.099915,549.635925 628.189087,549.671082 632.067139,539.825195 
	C633.200684,536.947327 634.731201,535.824158 637.907593,535.943176 
	C644.551514,536.192078 651.225891,536.235413 657.861084,535.873779 
	C661.492249,535.675842 663.436707,536.862915 664.538330,541.012695 
M515.843079,518.735840 
	C523.723511,521.231628 531.727600,523.409912 539.413330,526.405212 
	C541.910767,527.378540 543.575623,530.488098 545.621338,532.620544 
	C543.443481,534.609375 541.416870,536.814819 539.019226,538.488831 
	C537.941589,539.241211 536.126038,539.034058 534.639099,539.086792 
	C526.577087,539.373230 519.278381,536.975220 512.189270,532.255737 
	C510.735413,536.154724 509.374023,539.805847 507.846832,543.901550 
	C520.171509,551.191345 532.937927,552.809570 546.327148,548.893860 
	C554.930969,546.377625 560.184814,539.441772 560.253296,531.463440 
	C560.323364,523.300049 556.430481,518.301025 546.876892,515.097107 
	C541.219543,513.199829 535.381897,511.833099 529.607300,510.295258 
	C526.294495,509.412994 523.498291,507.969147 523.858826,503.994080 
	C524.216980,500.045898 527.030090,497.859192 530.649841,498.046753 
	C538.257263,498.441010 545.832092,499.464569 553.983643,500.286621 
	C554.758789,497.992554 555.959900,494.437866 557.138000,490.951324 
	C545.617859,483.963623 527.719116,483.507782 517.829285,489.789001 
	C506.827698,496.776367 505.655273,509.879028 515.843079,518.735840 
M821.912415,485.526550 
	C817.475098,486.791412 812.716980,487.421051 808.672668,489.463989 
	C801.913696,492.878235 798.417847,498.842987 798.914062,506.617279 
	C799.398254,514.202942 803.955627,518.739014 810.833740,520.986633 
	C816.190857,522.737183 821.737549,523.899475 827.136292,525.533630 
	C831.036255,526.714172 835.715149,527.438110 835.699158,532.966736 
	C835.688599,536.619568 831.881836,538.983276 825.589111,538.972534 
	C821.479431,538.965454 817.253967,538.528625 813.296509,537.473511 
	C809.553162,536.475525 806.092041,534.419006 802.331177,532.750183 
	C800.940002,536.373840 799.588806,539.893433 798.266846,543.336914 
	C808.761902,552.278625 831.952271,553.608398 842.684021,545.901428 
	C848.420593,541.781677 850.851013,536.053101 850.228638,528.991089 
	C849.643311,522.349609 845.528076,518.527893 839.834045,516.169006 
	C836.627075,514.840515 833.193359,514.055542 829.853760,513.052490 
	C825.567688,511.765228 821.123962,510.860352 817.024170,509.134827 
	C812.748535,507.335266 812.519531,502.083801 816.449158,499.626495 
	C818.074829,498.609894 820.227417,497.693054 822.041931,497.852356 
	C829.187500,498.479706 836.293945,499.552734 844.048767,500.541168 
	C844.832336,498.110016 846.026306,494.405426 847.268616,490.550842 
	C839.338806,486.300812 831.210999,485.240051 821.912415,485.526550 
M721.461914,486.721832 
	C706.525574,486.721832 691.589294,486.721832 676.678589,486.721832 
	C676.678589,490.987610 676.678589,494.718628 676.678589,498.887604 
	C683.588501,498.887604 690.165100,498.887604 697.083252,498.887604 
	C697.083252,515.904175 697.083252,532.477844 697.083252,549.288513 
	C702.193909,549.288513 706.944092,549.288513 712.120361,549.288513 
	C712.120361,532.377380 712.120361,515.657959 712.120361,498.564362 
	C719.111755,498.564362 725.685730,498.564362 732.202148,498.564362 
	C732.202148,494.439453 732.202148,490.706757 732.202148,486.718170 
	C728.709473,486.718170 725.576599,486.718170 721.461914,486.721832 
M572.554932,486.786072 
	C569.266663,486.786072 565.978394,486.786072 562.819824,486.786072 
	C562.819824,491.079834 562.819824,494.820923 562.819824,498.864532 
	C569.640625,498.864532 576.082581,498.864532 582.969238,498.864532 
	C582.969238,515.889221 582.969238,532.609192 582.969238,549.294128 
	C588.180115,549.294128 592.930725,549.294128 598.111328,549.294128 
	C598.111328,532.307739 598.111328,515.592468 598.111328,498.426636 
	C605.277283,498.426636 612.011169,498.426636 618.626831,498.426636 
	C618.626831,494.347931 618.626831,490.732941 618.626831,486.786774 
	C603.422180,486.786774 588.480835,486.786774 572.554932,486.786072 
z"/>
<path fill="#12A5D8" opacity="1.000000" stroke="none" 
	d="
M470.638916,499.803467 
	C469.694458,502.409058 468.991638,503.735992 468.195892,505.004669 
	C459.780670,518.421631 450.418060,531.537476 455.759155,549.311768 
	C449.769257,549.311768 445.036774,549.311768 439.515228,549.311768 
	C439.515228,543.994873 439.823151,538.533752 439.402161,533.129333 
	C439.140625,529.772034 438.428284,526.127686 436.789459,523.256470 
	C430.203491,511.718048 423.177460,500.430847 415.545959,487.777283 
	C412.802704,490.865753 410.572052,493.435791 408.277435,495.947418 
	C404.346191,500.250366 400.649628,504.821167 396.340790,508.710266 
	C392.306427,512.351562 392.683289,515.135376 395.897156,519.100464 
	C403.023193,527.891968 409.714661,537.035828 416.570404,546.045898 
	C417.255951,546.946838 417.852386,547.915649 419.070465,549.705872 
	C413.105896,549.705872 407.865417,549.988647 402.689667,549.534241 
	C401.129578,549.397278 399.491821,547.414062 398.330627,545.931335 
	C392.906738,539.005066 387.636993,531.958069 382.372009,525.032959 
	C371.188721,530.263306 373.389557,540.308472 373.226685,549.536865 
	C368.131683,549.536865 363.556702,549.536865 358.600464,549.536865 
	C358.600464,528.604736 358.600464,507.898895 358.600464,486.891541 
	C363.418854,486.891541 368.014923,486.891541 373.392212,486.891541 
	C373.392212,495.299194 373.392212,503.662811 373.392212,513.635498 
	C376.056671,511.440094 377.599670,510.400879 378.860748,509.090363 
	C385.095856,502.610901 391.133911,495.935608 397.531006,489.622803 
	C399.092926,488.081451 401.712738,486.932739 403.903290,486.830719 
	C411.550232,486.474426 419.225067,486.768280 426.883331,486.576813 
	C429.935425,486.500519 431.758118,487.603455 433.269592,490.235626 
	C437.647003,497.858856 442.261993,505.345642 447.288116,513.726990 
	C448.798584,511.679504 449.909729,510.375610 450.796967,508.933929 
	C453.850891,503.971832 456.811310,498.952271 459.835449,493.971710 
	C464.638184,486.061798 468.043793,484.821136 478.287231,487.530762 
	C475.759460,491.930542 473.298431,496.214172 470.638916,499.803467 
z"/>
<path fill="#12A5D8" opacity="1.000000" stroke="none" 
	d="
M226.911118,507.933594 
	C213.979309,522.193054 203.520767,537.759644 194.827652,554.063049 
	C188.680145,550.538940 182.836075,547.188843 176.631485,543.632019 
	C212.484268,492.670715 260.759766,457.745087 320.544708,435.853516 
	C317.236481,433.370453 315.237549,431.870117 312.620178,429.905609 
	C320.786133,429.905609 328.352966,429.905609 336.945679,429.905609 
	C332.664215,437.114258 328.744659,443.713531 324.085205,451.558533 
	C324.085205,446.663422 324.085205,443.243347 324.085205,438.671021 
	C285.602814,453.969391 253.997467,477.431976 226.911118,507.933594 
z"/>
<path fill="#060606" opacity="1.000000" stroke="none" 
	d="
M755.616455,507.947571 
	C755.194519,511.196167 756.191162,512.180725 759.124451,512.111816 
	C767.598572,511.912750 776.080383,512.041443 784.891357,512.041443 
	C784.891357,515.866394 784.891357,519.610596 784.891357,523.549927 
	C775.322388,523.549927 765.867249,523.549927 755.966797,523.549927 
	C755.966797,528.254211 755.966797,532.795044 755.966797,537.830444 
	C767.245911,537.830444 778.631653,537.830444 790.230713,537.830444 
	C790.230713,541.764526 790.230713,545.217224 790.230713,549.155762 
	C773.925842,549.155762 757.573914,549.155762 740.972534,549.155762 
	C740.972534,528.628540 740.972534,508.022858 740.972534,487.031616 
	C756.893677,487.031616 772.750427,487.031616 788.744629,487.031616 
	C788.744629,490.793499 788.744629,494.418396 788.744629,498.343262 
	C777.826477,498.343262 767.063599,498.343262 755.611816,498.343262 
	C755.611816,501.571625 755.611816,504.510651 755.616455,507.947571 
z"/>
<path fill="#12A5D8" opacity="1.000000" stroke="none" 
	d="
M302.175995,492.159180 
	C312.220947,484.263672 332.581299,482.887360 342.686493,489.347534 
	C343.619476,489.944031 344.519470,491.763092 344.301727,492.769226 
	C343.645691,495.800720 342.429932,498.711090 341.403290,501.755188 
	C336.966980,500.502533 333.057098,498.797424 329.023590,498.422516 
	C324.670532,498.017914 320.099091,498.408478 315.836212,499.384125 
	C314.219727,499.754120 312.340485,502.645264 312.170929,504.530304 
	C312.030029,506.096222 313.855804,508.655212 315.450317,509.395081 
	C319.023468,511.052856 322.990356,511.867737 326.805664,512.996216 
	C330.308594,514.032349 333.921173,514.777710 337.310944,516.098999 
	C343.467651,518.498718 347.713196,522.656616 348.035095,529.722656 
	C348.374878,537.180786 345.520172,543.055908 338.965759,546.817200 
	C330.913971,551.437866 322.080231,551.775208 313.260834,550.431824 
	C308.398621,549.691101 303.700806,547.755920 298.991028,546.174194 
	C296.238831,545.249817 294.942505,543.619263 296.643250,540.490479 
	C297.974487,538.041504 298.723358,535.275879 299.796417,532.480530 
	C303.907196,534.171875 307.706268,536.445129 311.791962,537.234009 
	C316.752991,538.191772 322.015137,538.438599 327.026001,537.889160 
	C329.151031,537.656250 332.314972,534.763428 332.530060,532.807129 
	C332.727844,531.008118 329.980896,528.091797 327.850464,527.016357 
	C324.658966,525.405273 320.865997,524.995483 317.339996,524.033875 
	C314.775482,523.334412 312.168884,522.730408 309.684418,521.805969 
	C295.040863,516.357178 291.900238,504.371918 302.175995,492.159180 
z"/>
<path fill="#060606" opacity="1.000000" stroke="none" 
	d="
M664.357422,540.653442 
	C663.436707,536.862915 661.492249,535.675842 657.861084,535.873779 
	C651.225891,536.235413 644.551514,536.192078 637.907593,535.943176 
	C634.731201,535.824158 633.200684,536.947327 632.067139,539.825195 
	C628.189087,549.671082 628.099915,549.635925 617.657104,549.635132 
	C616.218140,549.635010 614.779114,549.635132 612.701233,549.635132 
	C617.820374,538.370056 622.694519,527.728333 627.494934,517.053589 
	C631.373413,508.428925 635.318970,499.828400 638.910400,491.083984 
	C640.235474,487.857666 641.989624,487.060425 645.426697,486.599243 
	C653.540466,485.510529 657.227722,488.743805 660.229065,496.214447 
	C666.963440,512.977295 674.884644,529.263184 682.305054,545.751099 
	C682.765991,546.775269 683.075073,547.867798 683.467590,548.964417 
	C670.534485,551.428589 668.669678,550.629639 664.357422,540.653442 
M652.668762,511.838135 
	C651.292542,508.627228 649.916260,505.416321 648.230103,501.482330 
	C644.894653,509.724731 641.881958,517.169678 638.781311,524.831787 
	C645.207336,524.831787 651.130310,524.831787 657.682617,524.831787 
	C656.006958,520.494568 654.473694,516.526001 652.668762,511.838135 
z"/>
<path fill="#060606" opacity="1.000000" stroke="none" 
	d="
M515.561707,518.505981 
	C505.655273,509.879028 506.827698,496.776367 517.829285,489.789001 
	C527.719116,483.507782 545.617859,483.963623 557.138000,490.951324 
	C555.959900,494.437866 554.758789,497.992554 553.983643,500.286621 
	C545.832092,499.464569 538.257263,498.441010 530.649841,498.046753 
	C527.030090,497.859192 524.216980,500.045898 523.858826,503.994080 
	C523.498291,507.969147 526.294495,509.412994 529.607300,510.295258 
	C535.381897,511.833099 541.219543,513.199829 546.876892,515.097107 
	C556.430481,518.301025 560.323364,523.300049 560.253296,531.463440 
	C560.184814,539.441772 554.930969,546.377625 546.327148,548.893860 
	C532.937927,552.809570 520.171509,551.191345 507.846832,543.901550 
	C509.374023,539.805847 510.735413,536.154724 512.189270,532.255737 
	C519.278381,536.975220 526.577087,539.373230 534.639099,539.086792 
	C536.126038,539.034058 537.941589,539.241211 539.019226,538.488831 
	C541.416870,536.814819 543.443481,534.609375 545.621338,532.620544 
	C543.575623,530.488098 541.910767,527.378540 539.413330,526.405212 
	C531.727600,523.409912 523.723511,521.231628 515.561707,518.505981 
z"/>
<path fill="#060606" opacity="1.000000" stroke="none" 
	d="
M822.362427,485.487366 
	C831.210999,485.240051 839.338806,486.300812 847.268616,490.550842 
	C846.026306,494.405426 844.832336,498.110016 844.048767,500.541168 
	C836.293945,499.552734 829.187500,498.479706 822.041931,497.852356 
	C820.227417,497.693054 818.074829,498.609894 816.449158,499.626495 
	C812.519531,502.083801 812.748535,507.335266 817.024170,509.134827 
	C821.123962,510.860352 825.567688,511.765228 829.853760,513.052490 
	C833.193359,514.055542 836.627075,514.840515 839.834045,516.169006 
	C845.528076,518.527893 849.643311,522.349609 850.228638,528.991089 
	C850.851013,536.053101 848.420593,541.781677 842.684021,545.901428 
	C831.952271,553.608398 808.761902,552.278625 798.266846,543.336914 
	C799.588806,539.893433 800.940002,536.373840 802.331177,532.750183 
	C806.092041,534.419006 809.553162,536.475525 813.296509,537.473511 
	C817.253967,538.528625 821.479431,538.965454 825.589111,538.972534 
	C831.881836,538.983276 835.688599,536.619568 835.699158,532.966736 
	C835.715149,527.438110 831.036255,526.714172 827.136292,525.533630 
	C821.737549,523.899475 816.190857,522.737183 810.833740,520.986633 
	C803.955627,518.739014 799.398254,514.202942 798.914062,506.617279 
	C798.417847,498.842987 801.913696,492.878235 808.672668,489.463989 
	C812.716980,487.421051 817.475098,486.791412 822.362427,485.487366 
z"/>
<path fill="#252321" opacity="1.000000" stroke="none" 
	d="
M305.231873,453.021667 
	C303.608063,454.873047 302.218353,457.016998 300.325256,458.531921 
	C271.988098,481.207642 248.847473,508.102936 233.353912,541.146118 
	C225.413712,558.080139 219.727722,575.769531 216.831665,594.300049 
	C216.768707,594.702942 216.518738,595.076599 215.904236,596.539124 
	C214.871902,593.505981 214.293320,591.341187 213.414169,589.306213 
	C210.193192,581.850464 206.773438,574.478760 203.669540,566.975708 
	C203.023102,565.413025 202.741425,563.115112 203.410995,561.677246 
	C224.961823,515.398438 258.916901,480.521729 302.401611,454.475342 
	C303.077362,454.070618 303.951416,453.997009 304.945526,453.414856 
	C305.158112,453.060852 305.231873,453.021667 305.231873,453.021667 
z"/>
<path fill="#060606" opacity="1.000000" stroke="none" 
	d="
M721.952820,486.720001 
	C725.576599,486.718170 728.709473,486.718170 732.202148,486.718170 
	C732.202148,490.706757 732.202148,494.439453 732.202148,498.564362 
	C725.685730,498.564362 719.111755,498.564362 712.120361,498.564362 
	C712.120361,515.657959 712.120361,532.377380 712.120361,549.288513 
	C706.944092,549.288513 702.193909,549.288513 697.083252,549.288513 
	C697.083252,532.477844 697.083252,515.904175 697.083252,498.887604 
	C690.165100,498.887604 683.588501,498.887604 676.678589,498.887604 
	C676.678589,494.718628 676.678589,490.987610 676.678589,486.721832 
	C691.589294,486.721832 706.525574,486.721832 721.952820,486.720001 
z"/>
<path fill="#060606" opacity="1.000000" stroke="none" 
	d="
M573.047241,486.786438 
	C588.480835,486.786774 603.422180,486.786774 618.626831,486.786774 
	C618.626831,490.732941 618.626831,494.347931 618.626831,498.426636 
	C612.011169,498.426636 605.277283,498.426636 598.111328,498.426636 
	C598.111328,515.592468 598.111328,532.307739 598.111328,549.294128 
	C592.930725,549.294128 588.180115,549.294128 582.969238,549.294128 
	C582.969238,532.609192 582.969238,515.889221 582.969238,498.864532 
	C576.082581,498.864532 569.640625,498.864532 562.819824,498.864532 
	C562.819824,494.820923 562.819824,491.079834 562.819824,486.786072 
	C565.978394,486.786072 569.266663,486.786072 573.047241,486.786438 
z"/>
<path fill="#252321" opacity="1.000000" stroke="none" 
	d="
M305.148743,453.101562 
	C305.139404,453.142303 305.173767,452.896973 305.173767,452.896973 
	C305.173767,452.896973 305.020203,453.070587 305.126038,453.046143 
	C305.231873,453.021667 305.158112,453.060852 305.148743,453.101562 
z"/>
<path fill="#FFFFFF" opacity="1.000000" stroke="none" 
	d="
M652.804565,512.197754 
	C654.473694,516.526001 656.006958,520.494568 657.682617,524.831787 
	C651.130310,524.831787 645.207336,524.831787 638.781311,524.831787 
	C641.881958,517.169678 644.894653,509.724731 648.230103,501.482330 
	C649.916260,505.416321 651.292542,508.627228 652.804565,512.197754 
z"/>
</svg>